<?xml version="1.0" encoding="UTF-8"?>
<svg width="1200pt" height="1200pt" version="1.1" viewBox="0 0 1200 1200" xmlns="http://www.w3.org/2000/svg">
 <path fill="#353779" d="m255.75 525.94 69.375-12.75-54 81.375-22.5-56.25c-0.99609-2.5859-0.77344-5.4844 0.61328-7.8867 1.3828-2.4023 3.7734-4.0508 6.5117-4.4883z"/>
 <path fill="#353779" d="m662.62 717.56h-123.56l-52.5 262.5h465.38l-73.312-548.81-143.06-206.25c-2.1016-3.0742-5.8203-4.6133-9.4805-3.9219-3.6562 0.69141-6.5586 3.4805-7.3945 7.1094l-27.938 125.81-18.75 76.312c-1.1016 4.1797-4.8672 7.0977-9.1875 7.125h-2.25c-5.0391-1.293-8.1211-6.3711-6.9375-11.438l15.562-62.062-133.12 13.312c-22.312 2.0508-42.035 15.34-52.312 35.25l-37.5 75c-1.3672 2.625-3.8477 4.4883-6.75 5.0625l-88.5 16.125-71.625 106.88 26.25 65.625c2.0938 5.1992 5.6914 9.6562 10.336 12.797 4.6445 3.1406 10.121 4.8242 15.727 4.8281h330.94c5.1758 0 9.375 4.1992 9.375 9.375s-4.1992 9.375-9.375 9.375zm-112.5-225c-7.4609 0-14.613-2.9648-19.887-8.2383-5.2734-5.2734-8.2383-12.426-8.2383-19.887s2.9648-14.613 8.2383-19.887c5.2734-5.2734 12.426-8.2383 19.887-8.2383s14.613 2.9648 19.887 8.2383c5.2734 5.2734 8.2383 12.426 8.2383 19.887s-2.9648 14.613-8.2383 19.887c-5.2734 5.2734-12.426 8.2383-19.887 8.2383z"/>
</svg>
